<svg version="1.1" viewBox="0.0 0.0 600.0 371.0" fill="none" stroke="none" stroke-linecap="square" stroke-miterlimit="10" width="600" height="371" xmlns:xlink="http://www.w3.org/1999/xlink" xmlns="http://www.w3.org/2000/svg"><path fill="#ffffff" d="M0 0L600.0 0L600.0 371.0L0 371.0L0 0Z" fill-rule="nonzero"/><path stroke="#cccccc" stroke-width="1.0" stroke-linecap="butt" d="M45.5 25.5L45.5 332.5" fill-rule="nonzero"/><path stroke="#cccccc" stroke-width="1.0" stroke-linecap="butt" d="M122.5 25.5L122.5 332.5" fill-rule="nonzero"/><path stroke="#cccccc" stroke-width="1.0" stroke-linecap="butt" d="M198.5 25.5L198.5 332.5" fill-rule="nonzero"/><path stroke="#cccccc" stroke-width="1.0" stroke-linecap="butt" d="M275.5 25.5L275.5 332.5" fill-rule="nonzero"/><path stroke="#cccccc" stroke-width="1.0" stroke-linecap="butt" d="M351.5 25.5L351.5 332.5" fill-rule="nonzero"/><path stroke="#cccccc" stroke-width="1.0" stroke-linecap="butt" d="M428.5 25.5L428.5 332.5" fill-rule="nonzero"/><path stroke="#cccccc" stroke-width="1.0" stroke-linecap="butt" d="M504.5 25.5L504.5 332.5" fill-rule="nonzero"/><path stroke="#cccccc" stroke-width="1.0" stroke-linecap="butt" d="M581.5 25.5L581.5 332.5" fill-rule="nonzero"/><path stroke="#333333" stroke-width="1.0" stroke-linecap="butt" d="M45.5 332.5L581.5 332.5" fill-rule="nonzero"/><path stroke="#cccccc" stroke-width="1.0" stroke-linecap="butt" d="M45.5 255.5L581.5 255.5" fill-rule="nonzero"/><path stroke="#cccccc" stroke-width="1.0" stroke-linecap="butt" d="M45.5 179.5L581.5 179.5" fill-rule="nonzero"/><path stroke="#cccccc" stroke-width="1.0" stroke-linecap="butt" d="M45.5 102.5L581.5 102.5" fill-rule="nonzero"/><path stroke="#cccccc" stroke-width="1.0" stroke-linecap="butt" d="M45.5 25.5L581.5 25.5" fill-rule="nonzero"/><clipPath id="id_0"><path d="M45.55 25.55L581.45 25.55L581.45 332.45L45.55 332.45L45.55 25.55Z" clip-rule="nonzero"/></clipPath><path stroke="#4285f4" stroke-width="2.0" stroke-linecap="butt" clip-path="url(#id_0)" d="M45.55 326.312L83.828575 298.691L122.10714 286.415L160.38571 277.208L198.66429 289.484L236.94286 289.484L275.22144 258.794L313.5 218.897L351.77856 212.759L390.05713 197.414L428.33572 166.724L466.6143 83.861L504.89285 166.724L543.17145 25.55L581.45 68.516" fill-rule="nonzero"/><path fill="#000000" fill-opacity="0.0" clip-path="url(#id_0)" d="M48.55 326.312C48.55 327.96884 47.206856 329.312 45.55 329.312C43.893147 329.312 42.55 327.96884 42.55 326.312C42.55 324.65515 43.893147 323.312 45.55 323.312C47.206856 323.312 48.55 324.65515 48.55 326.312Z" fill-rule="nonzero"/><path fill="#000000" fill-opacity="0.0" clip-path="url(#id_0)" d="M86.828575 298.691C86.828575 300.34784 85.48543 301.691 83.828575 301.691C82.171715 301.691 80.828575 300.34784 80.828575 298.691C80.828575 297.03415 82.171715 295.691 83.828575 295.691C85.48543 295.691 86.828575 297.03415 86.828575 298.691Z" fill-rule="nonzero"/><path fill="#000000" fill-opacity="0.0" clip-path="url(#id_0)" d="M125.10714 286.415C125.10714 288.07187 123.764 289.415 122.10714 289.415C120.45029 289.415 119.10714 288.07187 119.10714 286.415C119.10714 284.75815 120.45029 283.415 122.10714 283.415C123.764 283.415 125.10714 284.75815 125.10714 286.415Z" fill-rule="nonzero"/><path fill="#000000" fill-opacity="0.0" clip-path="url(#id_0)" d="M163.38571 277.208C163.38571 278.86487 162.04257 280.208 160.38571 280.208C158.72887 280.208 157.38571 278.86487 157.38571 277.208C157.38571 275.55115 158.72887 274.208 160.38571 274.208C162.04257 274.208 163.38571 275.55115 163.38571 277.208Z" fill-rule="nonzero"/><path fill="#000000" fill-opacity="0.0" clip-path="url(#id_0)" d="M201.66429 289.484C201.66429 291.14087 200.32114 292.484 198.66429 292.484C197.00743 292.484 195.66429 291.14087 195.66429 289.484C195.66429 287.82715 197.00743 286.484 198.66429 286.484C200.32114 286.484 201.66429 287.82715 201.66429 289.484Z" fill-rule="nonzero"/><path fill="#000000" fill-opacity="0.0" clip-path="url(#id_0)" d="M239.94286 289.484C239.94286 291.14087 238.59972 292.484 236.94286 292.484C235.286 292.484 233.94286 291.14087 233.94286 289.484C233.94286 287.82715 235.286 286.484 236.94286 286.484C238.59972 286.484 239.94286 287.82715 239.94286 289.484Z" fill-rule="nonzero"/><path fill="#000000" fill-opacity="0.0" clip-path="url(#id_0)" d="M278.22144 258.794C278.22144 260.45087 276.8783 261.794 275.22144 261.794C273.56458 261.794 272.22144 260.45087 272.22144 258.794C272.22144 257.13715 273.56458 255.794 275.22144 255.794C276.8783 255.794 278.22144 257.13715 278.22144 258.794Z" fill-rule="nonzero"/><path fill="#000000" fill-opacity="0.0" clip-path="url(#id_0)" d="M316.5 218.897C316.5 220.55385 315.15686 221.897 313.5 221.897C311.84314 221.897 310.5 220.55385 310.5 218.897C310.5 217.24014 311.84314 215.897 313.5 215.897C315.15686 215.897 316.5 217.24014 316.5 218.897Z" fill-rule="nonzero"/><path fill="#000000" fill-opacity="0.0" clip-path="url(#id_0)" d="M354.77856 212.759C354.77856 214.41585 353.43542 215.759 351.77856 215.759C350.1217 215.759 348.77856 214.41585 348.77856 212.759C348.77856 211.10214 350.1217 209.759 351.77856 209.759C353.43542 209.759 354.77856 211.10214 354.77856 212.759Z" fill-rule="nonzero"/><path fill="#000000" fill-opacity="0.0" clip-path="url(#id_0)" d="M393.05713 197.414C393.05713 199.07086 391.714 200.414 390.05713 200.414C388.4003 200.414 387.05713 199.07086 387.05713 197.414C387.05713 195.75714 388.4003 194.414 390.05713 194.414C391.714 194.414 393.05713 195.75714 393.05713 197.414Z" fill-rule="nonzero"/><path fill="#000000" fill-opacity="0.0" clip-path="url(#id_0)" d="M431.33572 166.724C431.33572 168.38086 429.99255 169.724 428.33572 169.724C426.67886 169.724 425.33572 168.38086 425.33572 166.724C425.33572 165.06714 426.67886 163.724 428.33572 163.724C429.99255 163.724 431.33572 165.06714 431.33572 166.724Z" fill-rule="nonzero"/><path fill="#000000" fill-opacity="0.0" clip-path="url(#id_0)" d="M469.6143 83.861C469.6143 85.51785 468.27115 86.861 466.6143 86.861C464.95743 86.861 463.6143 85.51785 463.6143 83.861C463.6143 82.20415 464.95743 80.861 466.6143 80.861C468.27115 80.861 469.6143 82.20415 469.6143 83.861Z" fill-rule="nonzero"/><path fill="#000000" fill-opacity="0.0" clip-path="url(#id_0)" d="M507.89285 166.724C507.89285 168.38086 506.5497 169.724 504.89285 169.724C503.236 169.724 501.89285 168.38086 501.89285 166.724C501.89285 165.06714 503.236 163.724 504.89285 163.724C506.5497 163.724 507.89285 165.06714 507.89285 166.724Z" fill-rule="nonzero"/><path fill="#000000" fill-opacity="0.0" clip-path="url(#id_0)" d="M546.17145 25.55C546.17145 27.206854 544.8283 28.55 543.17145 28.55C541.5146 28.55 540.17145 27.206854 540.17145 25.55C540.17145 23.893147 541.5146 22.55 543.17145 22.55C544.8283 22.55 546.17145 23.893147 546.17145 25.55Z" fill-rule="nonzero"/><path fill="#000000" fill-opacity="0.0" clip-path="url(#id_0)" d="M584.45 68.516C584.45 70.17285 583.1069 71.516 581.45 71.516C579.79315 71.516 578.45 70.17285 578.45 68.516C578.45 66.859146 579.79315 65.516 581.45 65.516C583.1069 65.516 584.45 66.859146 584.45 68.516Z" fill-rule="nonzero"/><path fill="#000000" d="M33.05 332.21564Q33.05 330.6844 33.3625 329.7625Q33.675 328.825 34.284374 328.325Q34.909374 327.825 35.846874 327.825Q36.534374 327.825 37.05 328.10626Q37.58125 328.3875 37.925 328.91876Q38.26875 329.4344 38.45625 330.1844Q38.64375 330.9344 38.64375 332.21564Q38.64375 333.73126 38.33125 334.65314Q38.034374 335.575 37.409374 336.09064Q36.8 336.59064 35.846874 336.59064Q34.6125 336.59064 33.89375 335.7Q33.05 334.6375 33.05 332.21564ZM34.128124 332.21564Q34.128124 334.325 34.628124 335.02814Q35.128124 335.73126 35.846874 335.73126Q36.58125 335.73126 37.065624 335.02814Q37.565624 334.325 37.565624 332.21564Q37.565624 330.09064 37.065624 329.40314Q36.58125 328.7 35.83125 328.7Q35.1125 328.7 34.675 329.3094Q34.128124 330.09064 34.128124 332.21564Z" fill-rule="nonzero"/><path fill="#000000" d="M31.596874 258.70938L31.596874 259.725L25.909374 259.725Q25.909374 259.35 26.034374 258.99063Q26.253124 258.4125 26.721874 257.85Q27.20625 257.2875 28.1125 256.55313Q29.51875 255.39688 30.003124 254.725Q30.503124 254.05313 30.503124 253.45938Q30.503124 252.83438 30.05 252.4125Q29.596874 251.975 28.878124 251.975Q28.1125 251.975 27.659374 252.42813Q27.20625 252.88126 27.190624 253.69376L26.1125 253.58438Q26.221874 252.36563 26.940624 251.74063Q27.675 251.1 28.909374 251.1Q30.14375 251.1 30.8625 251.7875Q31.58125 252.475 31.58125 253.49063Q31.58125 254.00626 31.3625 254.50626Q31.159374 254.99063 30.659374 255.55313Q30.175 256.1 29.05 257.05313Q28.096874 257.85 27.815624 258.14688Q27.55 258.42813 27.378124 258.70938L31.596874 258.70938ZM33.05 257.475L34.159374 257.38126Q34.284374 258.19376 34.721874 258.6Q35.175 259.00626 35.815624 259.00626Q36.565624 259.00626 37.096874 258.42813Q37.628124 257.85 37.628124 256.9125Q37.628124 256.00626 37.1125 255.49063Q36.6125 254.95938 35.784374 254.95938Q35.284374 254.95938 34.8625 255.19376Q34.45625 255.42813 34.221874 255.7875L33.2375 255.6625L34.065624 251.25626L38.346874 251.25626L38.346874 252.25626L34.909374 252.25626L34.45625 254.56876Q35.221874 254.02188 36.065624 254.02188Q37.190624 254.02188 37.95625 254.80313Q38.7375 255.58438 38.7375 256.81876Q38.7375 257.975 38.065624 258.83438Q37.2375 259.86563 35.815624 259.86563Q34.64375 259.86563 33.89375 259.20938Q33.159374 258.55313 33.05 257.475Z" fill-rule="nonzero"/><path fill="#000000" d="M26.05 180.75L27.159374 180.65625Q27.284374 181.46875 27.721874 181.875Q28.175 182.28125 28.815624 182.28125Q29.565624 182.28125 30.096874 181.70312Q30.628124 181.125 30.628124 180.1875Q30.628124 179.28125 30.1125 178.76562Q29.6125 178.23438 28.784374 178.23438Q28.284374 178.23438 27.8625 178.46875Q27.45625 178.70312 27.221874 179.0625L26.2375 178.9375L27.065624 174.53125L31.346874 174.53125L31.346874 175.53125L27.909374 175.53125L27.45625 177.84375Q28.221874 177.29688 29.065624 177.29688Q30.190624 177.29688 30.95625 178.07812Q31.7375 178.85938 31.7375 180.09375Q31.7375 181.25 31.065624 182.10938Q30.2375 183.14062 28.815624 183.14062Q27.64375 183.14062 26.89375 182.48438Q26.159374 181.82812 26.05 180.75ZM33.05 178.76562Q33.05 177.23438 33.3625 176.3125Q33.675 175.375 34.284374 174.875Q34.909374 174.375 35.846874 174.375Q36.534374 174.375 37.05 174.65625Q37.58125 174.9375 37.925 175.46875Q38.26875 175.98438 38.45625 176.73438Q38.64375 177.48438 38.64375 178.76562Q38.64375 180.28125 38.33125 181.20312Q38.034374 182.125 37.409374 182.64062Q36.8 183.14062 35.846874 183.14062Q34.6125 183.14062 33.89375 182.25Q33.05 181.1875 33.05 178.76562ZM34.128124 178.76562Q34.128124 180.875 34.628124 181.57812Q35.128124 182.28125 35.846874 182.28125Q36.58125 182.28125 37.065624 181.57812Q37.565624 180.875 37.565624 178.76562Q37.565624 176.64062 37.065624 175.95312Q36.58125 175.25 35.83125 175.25Q35.1125 175.25 34.675 175.85938Q34.128124 176.64062 34.128124 178.76562Z" fill-rule="nonzero"/><path fill="#000000" d="M26.1125 98.80625L26.1125 97.79063L31.675 97.79063L31.675 98.61875Q30.8625 99.49375 30.05 100.94688Q29.253124 102.38438 28.815624 103.91563Q28.4875 104.99375 28.409374 106.275L27.315624 106.275Q27.33125 105.25938 27.70625 103.82188Q28.096874 102.38438 28.8 101.05625Q29.51875 99.72813 30.33125 98.80625L26.1125 98.80625ZM33.05 104.025L34.159374 103.93125Q34.284374 104.74375 34.721874 105.15Q35.175 105.55625 35.815624 105.55625Q36.565624 105.55625 37.096874 104.97813Q37.628124 104.4 37.628124 103.4625Q37.628124 102.55625 37.1125 102.04063Q36.6125 101.50938 35.784374 101.50938Q35.284374 101.50938 34.8625 101.74375Q34.45625 101.97813 34.221874 102.3375L33.2375 102.2125L34.065624 97.80625L38.346874 97.80625L38.346874 98.80625L34.909374 98.80625L34.45625 101.11875Q35.221874 100.57188 36.065624 100.57188Q37.190624 100.57188 37.95625 101.35313Q38.7375 102.13438 38.7375 103.36875Q38.7375 104.525 38.065624 105.38438Q37.2375 106.41563 35.815624 106.41563Q34.64375 106.41563 33.89375 105.75938Q33.159374 105.10313 33.05 104.025Z" fill-rule="nonzero"/><path fill="#000000" d="M23.01875 29.55L21.971874 29.55L21.971874 22.83125Q21.58125 23.190624 20.95625 23.565624Q20.346874 23.925 19.8625 24.096874L19.8625 23.08125Q20.7375 22.659374 21.39375 22.08125Q22.065624 21.4875 22.346874 20.925L23.01875 20.925L23.01875 29.55ZM26.05 25.315624Q26.05 23.784374 26.3625 22.8625Q26.675 21.925 27.284374 21.425Q27.909374 20.925 28.846874 20.925Q29.534374 20.925 30.05 21.20625Q30.58125 21.4875 30.925 22.01875Q31.26875 22.534374 31.45625 23.284374Q31.64375 24.034374 31.64375 25.315624Q31.64375 26.83125 31.33125 27.753124Q31.034374 28.675 30.409374 29.190624Q29.8 29.690624 28.846874 29.690624Q27.6125 29.690624 26.89375 28.8Q26.05 27.7375 26.05 25.315624ZM27.128124 25.315624Q27.128124 27.425 27.628124 28.128124Q28.128124 28.83125 28.846874 28.83125Q29.58125 28.83125 30.065624 28.128124Q30.565624 27.425 30.565624 25.315624Q30.565624 23.190624 30.065624 22.503124Q29.58125 21.8 28.83125 21.8Q28.1125 21.8 27.675 22.409374Q27.128124 23.190624 27.128124 25.315624ZM33.05 25.315624Q33.05 23.784374 33.3625 22.8625Q33.675 21.925 34.284374 21.425Q34.909374 20.925 35.846874 20.925Q36.534374 20.925 37.05 21.20625Q37.58125 21.4875 37.925 22.01875Q38.26875 22.534374 38.45625 23.284374Q38.64375 24.034374 38.64375 25.315624Q38.64375 26.83125 38.33125 27.753124Q38.034374 28.675 37.409374 29.190624Q36.8 29.690624 35.846874 29.690624Q34.6125 29.690624 33.89375 28.8Q33.05 27.7375 33.05 25.315624ZM34.128124 25.315624Q34.128124 27.425 34.628124 28.128124Q35.128124 28.83125 35.846874 28.83125Q36.58125 28.83125 37.065624 28.128124Q37.565624 27.425 37.565624 25.315624Q37.565624 23.190624 37.065624 22.503124Q36.58125 21.8 35.83125 21.8Q35.1125 21.8 34.675 22.409374Q34.128124 23.190624 34.128124 25.315624Z" fill-rule="nonzero"/><path fill="#000000" d="M37.596874 348.4344L37.596874 349.45L31.909374 349.45Q31.909374 349.075 32.034374 348.71564Q32.253124 348.1375 32.721874 347.575Q33.20625 347.0125 34.1125 346.27814Q35.51875 345.1219 36.003124 344.45Q36.503124 343.77814 36.503124 343.1844Q36.503124 342.5594 36.05 342.1375Q35.596874 341.7 34.878124 341.7Q34.1125 341.7 33.659374 342.15314Q33.20625 342.60626 33.190624 343.41876L32.1125 343.3094Q32.221874 342.09064 32.940624 341.46564Q33.675 340.825 34.909374 340.825Q36.14375 340.825 36.8625 341.5125Q37.58125 342.2 37.58125 343.21564Q37.58125 343.73126 37.3625 344.23126Q37.159374 344.71564 36.659374 345.27814Q36.175 345.825 35.05 346.77814Q34.096874 347.575 33.815624 347.8719Q33.55 348.15314 33.378124 348.4344L37.596874 348.4344ZM39.05 345.21564Q39.05 343.6844 39.3625 342.7625Q39.675 341.825 40.284374 341.325Q40.909374 340.825 41.846874 340.825Q42.534374 340.825 43.05 341.10626Q43.58125 341.3875 43.925 341.91876Q44.26875 342.4344 44.45625 343.1844Q44.64375 343.9344 44.64375 345.21564Q44.64375 346.73126 44.33125 347.65314Q44.034374 348.575 43.409374 349.09064Q42.8 349.59064 41.846874 349.59064Q40.6125 349.59064 39.89375 348.7Q39.05 347.6375 39.05 345.21564ZM40.128124 345.21564Q40.128124 347.325 40.628124 348.02814Q41.128124 348.73126 41.846874 348.73126Q42.58125 348.73126 43.065624 348.02814Q43.565624 347.325 43.565624 345.21564Q43.565624 343.09064 43.065624 342.40314Q42.58125 341.7 41.83125 341.7Q41.1125 341.7 40.675 342.3094Q40.128124 343.09064 40.128124 345.21564ZM46.05 345.21564Q46.05 343.6844 46.3625 342.7625Q46.675 341.825 47.284374 341.325Q47.909374 340.825 48.846874 340.825Q49.534374 340.825 50.05 341.10626Q50.58125 341.3875 50.925 341.91876Q51.26875 342.4344 51.45625 343.1844Q51.64375 343.9344 51.64375 345.21564Q51.64375 346.73126 51.33125 347.65314Q51.034374 348.575 50.409374 349.09064Q49.8 349.59064 48.846874 349.59064Q47.6125 349.59064 46.89375 348.7Q46.05 347.6375 46.05 345.21564ZM47.128124 345.21564Q47.128124 347.325 47.628124 348.02814Q48.128124 348.73126 48.846874 348.73126Q49.58125 348.73126 50.065624 348.02814Q50.565624 347.325 50.565624 345.21564Q50.565624 343.09064 50.065624 342.40314Q49.58125 341.7 48.83125 341.7Q48.1125 341.7 47.675 342.3094Q47.128124 343.09064 47.128124 345.21564ZM54.675 344.79376Q54.01875 344.54376 53.690624 344.10626Q53.378124 343.65314 53.378124 343.04376Q53.378124 342.10626 54.05 341.46564Q54.7375 340.825 55.846874 340.825Q56.971874 340.825 57.659374 341.48126Q58.346874 342.1375 58.346874 343.075Q58.346874 343.66876 58.034374 344.10626Q57.721874 344.54376 57.08125 344.79376Q57.878124 345.04376 58.284374 345.6219Q58.690624 346.2 58.690624 346.9969Q58.690624 348.09064 57.909374 348.84064Q57.14375 349.59064 55.8625 349.59064Q54.596874 349.59064 53.815624 348.84064Q53.034374 348.09064 53.034374 346.96564Q53.034374 346.1219 53.45625 345.5594Q53.89375 344.9969 54.675 344.79376ZM54.45625 342.9969Q54.45625 343.60626 54.846874 343.9969Q55.253124 344.3875 55.878124 344.3875Q56.4875 344.3875 56.878124 344.0125Q57.26875 343.6219 57.26875 343.0594Q57.26875 342.48126 56.8625 342.09064Q56.45625 341.6844 55.8625 341.6844Q55.253124 341.6844 54.846874 342.075Q54.45625 342.46564 54.45625 342.9969ZM54.128124 346.96564Q54.128124 347.41876 54.33125 347.84064Q54.55 348.2625 54.971874 348.4969Q55.39375 348.73126 55.878124 348.73126Q56.628124 348.73126 57.1125 348.2469Q57.6125 347.7625 57.6125 347.0125Q57.6125 346.2469 57.1125 345.7469Q56.6125 345.2469 55.846874 345.2469Q55.096874 345.2469 54.6125 345.7469Q54.128124 346.23126 54.128124 346.96564Z" fill-rule="nonzero"/><path fill="#000000" d="M114.154015 348.4344L114.154015 349.45L108.466515 349.45Q108.466515 349.075 108.591515 348.71564Q108.810265 348.1375 109.279015 347.575Q109.76339 347.0125 110.66964 346.27814Q112.07589 345.1219 112.560265 344.45Q113.060265 343.77814 113.060265 343.1844Q113.060265 342.5594 112.60714 342.1375Q112.154015 341.7 111.435265 341.7Q110.66964 341.7 110.216515 342.15314Q109.76339 342.60626 109.747765 343.41876L108.66964 343.3094Q108.779015 342.09064 109.497765 341.46564Q110.23214 340.825 111.466515 340.825Q112.70089 340.825 113.41964 341.5125Q114.13839 342.2 114.13839 343.21564Q114.13839 343.73126 113.91964 344.23126Q113.716515 344.71564 113.216515 345.27814Q112.73214 345.825 111.60714 346.77814Q110.654015 347.575 110.372765 347.8719Q110.10714 348.15314 109.935265 348.4344L114.154015 348.4344ZM115.60714 345.21564Q115.60714 343.6844 115.91964 342.7625Q116.23214 341.825 116.841515 341.325Q117.466515 340.825 118.404015 340.825Q119.091515 340.825 119.60714 341.10626Q120.13839 341.3875 120.48214 341.91876Q120.82589 342.4344 121.01339 343.1844Q121.20089 343.9344 121.20089 345.21564Q121.20089 346.73126 120.88839 347.65314Q120.591515 348.575 119.966515 349.09064Q119.35714 349.59064 118.404015 349.59064Q117.16964 349.59064 116.45089 348.7Q115.60714 347.6375 115.60714 345.21564ZM116.685265 345.21564Q116.685265 347.325 117.185265 348.02814Q117.685265 348.73126 118.404015 348.73126Q119.13839 348.73126 119.622765 348.02814Q120.122765 347.325 120.122765 345.21564Q120.122765 343.09064 119.622765 342.40314Q119.13839 341.7 118.38839 341.7Q117.66964 341.7 117.23214 342.3094Q116.685265 343.09064 116.685265 345.21564ZM126.57589 349.45L125.529015 349.45L125.529015 342.73126Q125.13839 343.09064 124.51339 343.46564Q123.904015 343.825 123.41964 343.9969L123.41964 342.98126Q124.29464 342.5594 124.95089 341.98126Q125.622765 341.3875 125.904015 340.825L126.57589 340.825L126.57589 349.45ZM129.60715 345.21564Q129.60715 343.6844 129.91965 342.7625Q130.23215 341.825 130.84152 341.325Q131.46652 340.825 132.40402 340.825Q133.09152 340.825 133.60715 341.10626Q134.1384 341.3875 134.48215 341.91876Q134.8259 342.4344 135.0134 343.1844Q135.2009 343.9344 135.2009 345.21564Q135.2009 346.73126 134.8884 347.65314Q134.59152 348.575 133.96652 349.09064Q133.35715 349.59064 132.40402 349.59064Q131.16965 349.59064 130.4509 348.7Q129.60715 347.6375 129.60715 345.21564ZM130.68527 345.21564Q130.68527 347.325 131.18527 348.02814Q131.68527 348.73126 132.40402 348.73126Q133.1384 348.73126 133.62277 348.02814Q134.12277 347.325 134.12277 345.21564Q134.12277 343.09064 133.62277 342.40314Q133.1384 341.7 132.3884 341.7Q131.66965 341.7 131.23215 342.3094Q130.68527 343.09064 130.68527 345.21564Z" fill-rule="nonzero"/><path fill="#000000" d="M190.71117 348.4344L190.71117 349.45L185.02367 349.45Q185.02367 349.075 185.14867 348.71564Q185.36742 348.1375 185.83617 347.575Q186.32054 347.0125 187.22679 346.27814Q188.63304 345.1219 189.11742 344.45Q189.61742 343.77814 189.61742 343.1844Q189.61742 342.5594 189.16429 342.1375Q188.71117 341.7 187.99242 341.7Q187.22679 341.7 186.77367 342.15314Q186.32054 342.60626 186.30492 343.41876L185.22679 343.3094Q185.33617 342.09064 186.05492 341.46564Q186.78929 340.825 188.02367 340.825Q189.25804 340.825 189.97679 341.5125Q190.69554 342.2 190.69554 343.21564Q190.69554 343.73126 190.47679 344.23126Q190.27367 344.71564 189.77367 345.27814Q189.28929 345.825 188.16429 346.77814Q187.21117 347.575 186.92992 347.8719Q186.66429 348.15314 186.49242 348.4344L190.71117 348.4344ZM192.16429 345.21564Q192.16429 343.6844 192.47679 342.7625Q192.78929 341.825 193.39867 341.325Q194.02367 340.825 194.96117 340.825Q195.64867 340.825 196.16429 341.10626Q196.69554 341.3875 197.03929 341.91876Q197.38304 342.4344 197.57054 343.1844Q197.75804 343.9344 197.75804 345.21564Q197.75804 346.73126 197.44554 347.65314Q197.14867 348.575 196.52367 349.09064Q195.91429 349.59064 194.96117 349.59064Q193.72679 349.59064 193.00804 348.7Q192.16429 347.6375 192.16429 345.21564ZM193.24242 345.21564Q193.24242 347.325 193.74242 348.02814Q194.24242 348.73126 194.96117 348.73126Q195.69554 348.73126 196.17992 348.02814Q196.67992 347.325 196.67992 345.21564Q196.67992 343.09064 196.17992 342.40314Q195.69554 341.7 194.94554 341.7Q194.22679 341.7 193.78929 342.3094Q193.24242 343.09064 193.24242 345.21564ZM203.13304 349.45L202.08617 349.45L202.08617 342.73126Q201.69554 343.09064 201.07054 343.46564Q200.46117 343.825 199.97679 343.9969L199.97679 342.98126Q200.85179 342.5594 201.50804 341.98126Q202.17992 341.3875 202.46117 340.825L203.13304 340.825L203.13304 349.45ZM211.71117 348.4344L211.71117 349.45L206.02367 349.45Q206.02367 349.075 206.14867 348.71564Q206.36742 348.1375 206.83617 347.575Q207.32054 347.0125 208.22679 346.27814Q209.63304 345.1219 210.11742 344.45Q210.61742 343.77814 210.61742 343.1844Q210.61742 342.5594 210.16429 342.1375Q209.71117 341.7 208.99242 341.7Q208.22679 341.7 207.77367 342.15314Q207.32054 342.60626 207.30492 343.41876L206.22679 343.3094Q206.33617 342.09064 207.05492 341.46564Q207.78929 340.825 209.02367 340.825Q210.25804 340.825 210.97679 341.5125Q211.69554 342.2 211.69554 343.21564Q211.69554 343.73126 211.47679 344.23126Q211.27367 344.71564 210.77367 345.27814Q210.28929 345.825 209.16429 346.77814Q208.21117 347.575 207.92992 347.8719Q207.66429 348.15314 207.49242 348.4344L211.71117 348.4344Z" fill-rule="nonzero"/><path fill="#000000" d="M267.2683 348.4344L267.2683 349.45L261.5808 349.45Q261.5808 349.075 261.7058 348.71564Q261.92456 348.1375 262.3933 347.575Q262.8777 347.0125 263.78394 346.27814Q265.1902 345.1219 265.67456 344.45Q266.17456 343.77814 266.17456 343.1844Q266.17456 342.5594 265.72144 342.1375Q265.2683 341.7 264.54956 341.7Q263.78394 341.7 263.3308 342.15314Q262.8777 342.60626 262.86206 343.41876L261.78394 343.3094Q261.8933 342.09064 262.61206 341.46564Q263.34644 340.825 264.5808 340.825Q265.8152 340.825 266.53394 341.5125Q267.2527 342.2 267.2527 343.21564Q267.2527 343.73126 267.03394 344.23126Q266.8308 344.71564 266.3308 345.27814Q265.84644 345.825 264.72144 346.77814Q263.7683 347.575 263.48706 347.8719Q263.22144 348.15314 263.04956 348.4344L267.2683 348.4344ZM268.72144 345.21564Q268.72144 343.6844 269.03394 342.7625Q269.34644 341.825 269.9558 341.325Q270.5808 340.825 271.5183 340.825Q272.2058 340.825 272.72144 341.10626Q273.2527 341.3875 273.59644 341.91876Q273.9402 342.4344 274.1277 343.1844Q274.3152 343.9344 274.3152 345.21564Q274.3152 346.73126 274.0027 347.65314Q273.7058 348.575 273.0808 349.09064Q272.47144 349.59064 271.5183 349.59064Q270.28394 349.59064 269.5652 348.7Q268.72144 347.6375 268.72144 345.21564ZM269.79956 345.21564Q269.79956 347.325 270.29956 348.02814Q270.79956 348.73126 271.5183 348.73126Q272.2527 348.73126 272.73706 348.02814Q273.23706 347.325 273.23706 345.21564Q273.23706 343.09064 272.73706 342.40314Q272.2527 341.7 271.5027 341.7Q270.78394 341.7 270.34644 342.3094Q269.79956 343.09064 269.79956 345.21564ZM279.6902 349.45L278.6433 349.45L278.6433 342.73126Q278.2527 343.09064 277.6277 343.46564Q277.0183 343.825 276.53394 343.9969L276.53394 342.98126Q277.40894 342.5594 278.0652 341.98126Q278.73706 341.3875 279.0183 340.825L279.6902 340.825L279.6902 349.45ZM286.09644 349.45L286.09644 347.3875L282.3777 347.3875L282.3777 346.41876L286.29956 340.85626L287.15894 340.85626L287.15894 346.41876L288.3152 346.41876L288.3152 347.3875L287.15894 347.3875L287.15894 349.45L286.09644 349.45ZM286.09644 346.41876L286.09644 342.5594L283.40894 346.41876L286.09644 346.41876Z" fill-rule="nonzero"/><path fill="#000000" d="M343.82544 348.4344L343.82544 349.45L338.13794 349.45Q338.13794 349.075 338.26294 348.71564Q338.4817 348.1375 338.95044 347.575Q339.4348 347.0125 340.34106 346.27814Q341.7473 345.1219 342.2317 344.45Q342.7317 343.77814 342.7317 343.1844Q342.7317 342.5594 342.27856 342.1375Q341.82544 341.7 341.1067 341.7Q340.34106 341.7 339.88794 342.15314Q339.4348 342.60626 339.4192 343.41876L338.34106 343.3094Q338.45044 342.09064 339.1692 341.46564Q339.90356 340.825 341.13794 340.825Q342.3723 340.825 343.09106 341.5125Q343.8098 342.2 343.8098 343.21564Q343.8098 343.73126 343.59106 344.23126Q343.38794 344.71564 342.88794 345.27814Q342.40356 345.825 341.27856 346.77814Q340.32544 347.575 340.0442 347.8719Q339.77856 348.15314 339.6067 348.4344L343.82544 348.4344ZM345.27856 345.21564Q345.27856 343.6844 345.59106 342.7625Q345.90356 341.825 346.51294 341.325Q347.13794 340.825 348.07544 340.825Q348.76294 340.825 349.27856 341.10626Q349.8098 341.3875 350.15356 341.91876Q350.4973 342.4344 350.6848 343.1844Q350.8723 343.9344 350.8723 345.21564Q350.8723 346.73126 350.5598 347.65314Q350.26294 348.575 349.63794 349.09064Q349.02856 349.59064 348.07544 349.59064Q346.84106 349.59064 346.1223 348.7Q345.27856 347.6375 345.27856 345.21564ZM346.3567 345.21564Q346.3567 347.325 346.8567 348.02814Q347.3567 348.73126 348.07544 348.73126Q348.8098 348.73126 349.2942 348.02814Q349.7942 347.325 349.7942 345.21564Q349.7942 343.09064 349.2942 342.40314Q348.8098 341.7 348.0598 341.7Q347.34106 341.7 346.90356 342.3094Q346.3567 343.09064 346.3567 345.21564ZM356.2473 349.45L355.20044 349.45L355.20044 342.73126Q354.8098 343.09064 354.1848 343.46564Q353.57544 343.825 353.09106 343.9969L353.09106 342.98126Q353.96606 342.5594 354.6223 341.98126Q355.2942 341.3875 355.57544 340.825L356.2473 340.825L356.2473 349.45ZM364.7473 342.96564L363.70044 343.04376Q363.5598 342.41876 363.3098 342.1375Q362.8723 341.6844 362.2473 341.6844Q361.7473 341.6844 361.3567 341.96564Q360.8723 342.34064 360.57544 343.04376Q360.2942 343.73126 360.27856 345.0125Q360.65356 344.4344 361.20044 344.15314Q361.76294 343.8719 362.3723 343.8719Q363.4192 343.8719 364.15356 344.65314Q364.90356 345.4344 364.90356 346.65314Q364.90356 347.46564 364.5442 348.16876Q364.20044 348.85626 363.59106 349.23126Q362.9817 349.59064 362.21606 349.59064Q360.88794 349.59064 360.0598 348.6219Q359.2317 347.65314 359.2317 345.4344Q359.2317 342.9344 360.15356 341.8094Q360.95044 340.825 362.3098 340.825Q363.32544 340.825 363.96606 341.40314Q364.6223 341.96564 364.7473 342.96564ZM360.45044 346.66876Q360.45044 347.21564 360.6692 347.71564Q360.90356 348.2 361.3098 348.46564Q361.7317 348.73126 362.20044 348.73126Q362.8567 348.73126 363.34106 348.2Q363.82544 347.65314 363.82544 346.73126Q363.82544 345.84064 363.34106 345.325Q362.8723 344.8094 362.15356 344.8094Q361.4348 344.8094 360.9348 345.325Q360.45044 345.84064 360.45044 346.66876Z" fill-rule="nonzero"/><path fill="#000000" d="M420.3826 348.4344L420.3826 349.45L414.6951 349.45Q414.6951 349.075 414.8201 348.71564Q415.03885 348.1375 415.5076 347.575Q415.99197 347.0125 416.89822 346.27814Q418.30447 345.1219 418.78885 344.45Q419.28885 343.77814 419.28885 343.1844Q419.28885 342.5594 418.83572 342.1375Q418.3826 341.7 417.66385 341.7Q416.89822 341.7 416.4451 342.15314Q415.99197 342.60626 415.97635 343.41876L414.89822 343.3094Q415.0076 342.09064 415.72635 341.46564Q416.46072 340.825 417.6951 340.825Q418.92947 340.825 419.64822 341.5125Q420.36697 342.2 420.36697 343.21564Q420.36697 343.73126 420.14822 344.23126Q419.9451 344.71564 419.4451 345.27814Q418.96072 345.825 417.83572 346.77814Q416.8826 347.575 416.60135 347.8719Q416.33572 348.15314 416.16385 348.4344L420.3826 348.4344ZM421.83572 345.21564Q421.83572 343.6844 422.14822 342.7625Q422.46072 341.825 423.0701 341.325Q423.6951 340.825 424.6326 340.825Q425.3201 340.825 425.83572 341.10626Q426.36697 341.3875 426.71072 341.91876Q427.05447 342.4344 427.24197 343.1844Q427.42947 343.9344 427.42947 345.21564Q427.42947 346.73126 427.11697 347.65314Q426.8201 348.575 426.1951 349.09064Q425.58572 349.59064 424.6326 349.59064Q423.39822 349.59064 422.67947 348.7Q421.83572 347.6375 421.83572 345.21564ZM422.91385 345.21564Q422.91385 347.325 423.41385 348.02814Q423.91385 348.73126 424.6326 348.73126Q425.36697 348.73126 425.85135 348.02814Q426.35135 347.325 426.35135 345.21564Q426.35135 343.09064 425.85135 342.40314Q425.36697 341.7 424.61697 341.7Q423.89822 341.7 423.46072 342.3094Q422.91385 343.09064 422.91385 345.21564ZM432.80447 349.45L431.7576 349.45L431.7576 342.73126Q431.36697 343.09064 430.74197 343.46564Q430.1326 343.825 429.64822 343.9969L429.64822 342.98126Q430.52322 342.5594 431.17947 341.98126Q431.85135 341.3875 432.1326 340.825L432.80447 340.825L432.80447 349.45ZM437.46072 344.79376Q436.80447 344.54376 436.47635 344.10626Q436.16385 343.65314 436.16385 343.04376Q436.16385 342.10626 436.83572 341.46564Q437.52322 340.825 438.6326 340.825Q439.7576 340.825 440.4451 341.48126Q441.1326 342.1375 441.1326 343.075Q441.1326 343.66876 440.8201 344.10626Q440.5076 344.54376 439.86697 344.79376Q440.66385 345.04376 441.0701 345.6219Q441.47635 346.2 441.47635 346.9969Q441.47635 348.09064 440.6951 348.84064Q439.92947 349.59064 438.64822 349.59064Q437.3826 349.59064 436.60135 348.84064Q435.8201 348.09064 435.8201 346.96564Q435.8201 346.1219 436.24197 345.5594Q436.67947 344.9969 437.46072 344.79376ZM437.24197 342.9969Q437.24197 343.60626 437.6326 343.9969Q438.03885 344.3875 438.66385 344.3875Q439.27322 344.3875 439.66385 344.0125Q440.05447 343.6219 440.05447 343.0594Q440.05447 342.48126 439.64822 342.09064Q439.24197 341.6844 438.64822 341.6844Q438.03885 341.6844 437.6326 342.075Q437.24197 342.46564 437.24197 342.9969ZM436.91385 346.96564Q436.91385 347.41876 437.11697 347.84064Q437.33572 348.2625 437.7576 348.4969Q438.17947 348.73126 438.66385 348.73126Q439.41385 348.73126 439.89822 348.2469Q440.39822 347.7625 440.39822 347.0125Q440.39822 346.2469 439.89822 345.7469Q439.39822 345.2469 438.6326 345.2469Q437.8826 345.2469 437.39822 345.7469Q436.91385 346.23126 436.91385 346.96564Z" fill-rule="nonzero"/><path fill="#000000" d="M496.93973 348.4344L496.93973 349.45L491.25223 349.45Q491.25223 349.075 491.37723 348.71564Q491.59598 348.1375 492.06473 347.575Q492.5491 347.0125 493.45535 346.27814Q494.8616 345.1219 495.34598 344.45Q495.84598 343.77814 495.84598 343.1844Q495.84598 342.5594 495.39285 342.1375Q494.93973 341.7 494.22098 341.7Q493.45535 341.7 493.00223 342.15314Q492.5491 342.60626 492.53348 343.41876L491.45535 343.3094Q491.56473 342.09064 492.28348 341.46564Q493.01785 340.825 494.25223 340.825Q495.4866 340.825 496.20535 341.5125Q496.9241 342.2 496.9241 343.21564Q496.9241 343.73126 496.70535 344.23126Q496.50223 344.71564 496.00223 345.27814Q495.51785 345.825 494.39285 346.77814Q493.43973 347.575 493.15848 347.8719Q492.89285 348.15314 492.72098 348.4344L496.93973 348.4344ZM498.39285 345.21564Q498.39285 343.6844 498.70535 342.7625Q499.01785 341.825 499.62723 341.325Q500.25223 340.825 501.18973 340.825Q501.87723 340.825 502.39285 341.10626Q502.9241 341.3875 503.26785 341.91876Q503.6116 342.4344 503.7991 343.1844Q503.9866 343.9344 503.9866 345.21564Q503.9866 346.73126 503.6741 347.65314Q503.37723 348.575 502.75223 349.09064Q502.14285 349.59064 501.18973 349.59064Q499.95535 349.59064 499.2366 348.7Q498.39285 347.6375 498.39285 345.21564ZM499.47098 345.21564Q499.47098 347.325 499.97098 348.02814Q500.47098 348.73126 501.18973 348.73126Q501.9241 348.73126 502.40848 348.02814Q502.90848 347.325 502.90848 345.21564Q502.90848 343.09064 502.40848 342.40314Q501.9241 341.7 501.1741 341.7Q500.45535 341.7 500.01785 342.3094Q499.47098 343.09064 499.47098 345.21564ZM510.93973 348.4344L510.93973 349.45L505.25223 349.45Q505.25223 349.075 505.37723 348.71564Q505.59598 348.1375 506.06473 347.575Q506.5491 347.0125 507.45535 346.27814Q508.8616 345.1219 509.34598 344.45Q509.84598 343.77814 509.84598 343.1844Q509.84598 342.5594 509.39285 342.1375Q508.93973 341.7 508.22098 341.7Q507.45535 341.7 507.00223 342.15314Q506.5491 342.60626 506.53348 343.41876L505.45535 343.3094Q505.56473 342.09064 506.28348 341.46564Q507.01785 340.825 508.25223 340.825Q509.4866 340.825 510.20535 341.5125Q510.9241 342.2 510.9241 343.21564Q510.9241 343.73126 510.70535 344.23126Q510.50223 344.71564 510.00223 345.27814Q509.51785 345.825 508.39285 346.77814Q507.43973 347.575 507.15848 347.8719Q506.89285 348.15314 506.72098 348.4344L510.93973 348.4344ZM512.3928 345.21564Q512.3928 343.6844 512.7053 342.7625Q513.0178 341.825 513.6272 341.325Q514.2522 340.825 515.1897 340.825Q515.8772 340.825 516.3928 341.10626Q516.9241 341.3875 517.2678 341.91876Q517.6116 342.4344 517.7991 343.1844Q517.9866 343.9344 517.9866 345.21564Q517.9866 346.73126 517.6741 347.65314Q517.3772 348.575 516.7522 349.09064Q516.1428 349.59064 515.1897 349.59064Q513.9553 349.59064 513.2366 348.7Q512.3928 347.6375 512.3928 345.21564ZM513.47095 345.21564Q513.47095 347.325 513.97095 348.02814Q514.47095 348.73126 515.1897 348.73126Q515.9241 348.73126 516.40845 348.02814Q516.90845 347.325 516.90845 345.21564Q516.90845 343.09064 516.40845 342.40314Q515.9241 341.7 515.1741 341.7Q514.4553 341.7 514.0178 342.3094Q513.47095 343.09064 513.47095 345.21564Z" fill-rule="nonzero"/><path fill="#000000" d="M573.4969 348.4344L573.4969 349.45L567.8094 349.45Q567.8094 349.075 567.9344 348.71564Q568.15314 348.1375 568.6219 347.575Q569.10626 347.0125 570.0125 346.27814Q571.41876 345.1219 571.90314 344.45Q572.40314 343.77814 572.40314 343.1844Q572.40314 342.5594 571.95 342.1375Q571.4969 341.7 570.77814 341.7Q570.0125 341.7 569.5594 342.15314Q569.10626 342.60626 569.09064 343.41876L568.0125 343.3094Q568.1219 342.09064 568.84064 341.46564Q569.575 340.825 570.8094 340.825Q572.04376 340.825 572.7625 341.5125Q573.48126 342.2 573.48126 343.21564Q573.48126 343.73126 573.2625 344.23126Q573.0594 344.71564 572.5594 345.27814Q572.075 345.825 570.95 346.77814Q569.9969 347.575 569.71564 347.8719Q569.45 348.15314 569.27814 348.4344L573.4969 348.4344ZM574.95 345.21564Q574.95 343.6844 575.2625 342.7625Q575.575 341.825 576.1844 341.325Q576.8094 340.825 577.7469 340.825Q578.4344 340.825 578.95 341.10626Q579.48126 341.3875 579.825 341.91876Q580.16876 342.4344 580.35626 343.1844Q580.54376 343.9344 580.54376 345.21564Q580.54376 346.73126 580.23126 347.65314Q579.9344 348.575 579.3094 349.09064Q578.7 349.59064 577.7469 349.59064Q576.5125 349.59064 575.79376 348.7Q574.95 347.6375 574.95 345.21564ZM576.02814 345.21564Q576.02814 347.325 576.52814 348.02814Q577.02814 348.73126 577.7469 348.73126Q578.48126 348.73126 578.96564 348.02814Q579.46564 347.325 579.46564 345.21564Q579.46564 343.09064 578.96564 342.40314Q578.48126 341.7 577.73126 341.7Q577.0125 341.7 576.575 342.3094Q576.02814 343.09064 576.02814 345.21564ZM587.4969 348.4344L587.4969 349.45L581.8094 349.45Q581.8094 349.075 581.9344 348.71564Q582.15314 348.1375 582.6219 347.575Q583.10626 347.0125 584.0125 346.27814Q585.41876 345.1219 585.90314 344.45Q586.40314 343.77814 586.40314 343.1844Q586.40314 342.5594 585.95 342.1375Q585.4969 341.7 584.77814 341.7Q584.0125 341.7 583.5594 342.15314Q583.10626 342.60626 583.09064 343.41876L582.0125 343.3094Q582.1219 342.09064 582.84064 341.46564Q583.575 340.825 584.8094 340.825Q586.04376 340.825 586.7625 341.5125Q587.48126 342.2 587.48126 343.21564Q587.48126 343.73126 587.2625 344.23126Q587.0594 344.71564 586.5594 345.27814Q586.075 345.825 584.95 346.77814Q583.9969 347.575 583.71564 347.8719Q583.45 348.15314 583.27814 348.4344L587.4969 348.4344ZM594.4969 348.4344L594.4969 349.45L588.8094 349.45Q588.8094 349.075 588.9344 348.71564Q589.15314 348.1375 589.6219 347.575Q590.10626 347.0125 591.0125 346.27814Q592.41876 345.1219 592.90314 344.45Q593.40314 343.77814 593.40314 343.1844Q593.40314 342.5594 592.95 342.1375Q592.4969 341.7 591.77814 341.7Q591.0125 341.7 590.5594 342.15314Q590.10626 342.60626 590.09064 343.41876L589.0125 343.3094Q589.1219 342.09064 589.84064 341.46564Q590.575 340.825 591.8094 340.825Q593.04376 340.825 593.7625 341.5125Q594.48126 342.2 594.48126 343.21564Q594.48126 343.73126 594.2625 344.23126Q594.0594 344.71564 593.5594 345.27814Q593.075 345.825 591.95 346.77814Q590.9969 347.575 590.71564 347.8719Q590.45 348.15314 590.27814 348.4344L594.4969 348.4344Z" fill-rule="nonzero"/></svg>